<svg width="24" height="24" viewBox="0 0 24 24" fill="none" xmlns="http://www.w3.org/2000/svg">
<path d="M23.855 11.0875C21.5954 4.47437 17.1221 0 12 0C6.87791 0 2.40332 4.4775 0.144977 11.0881C0.0496614 11.3709 0 11.6834 0 12.0003C0 12.3172 0.0496614 12.6297 0.144977 12.9125C2.40457 19.5256 6.87791 24 12 24C17.1221 24 21.5967 19.5225 23.855 12.9119C23.9503 12.6291 24 12.3166 24 11.9997C24 11.6828 23.9503 11.3703 23.855 11.0875ZM12 21C10.8133 21 9.65327 20.4722 8.66657 19.4832C7.67987 18.4943 6.91084 17.0887 6.45671 15.4442C6.00259 13.7996 5.88377 11.99 6.11528 10.2442C6.34679 8.49836 6.91823 6.89471 7.75735 5.63604C8.59647 4.37737 9.66557 3.5202 10.8295 3.17293C11.9933 2.82567 13.1997 3.0039 14.2961 3.68508C15.3925 4.36627 16.3295 5.51982 16.9888 6.99987C17.6481 8.47991 18 10.22 18 12C18.0004 13.1821 17.8455 14.3526 17.5441 15.4448C17.2427 16.537 16.8007 17.5294 16.2435 18.3652C15.6863 19.2011 15.0247 19.864 14.2966 20.3161C13.5684 20.7682 12.788 21.0006 12 21ZM12 6C11.643 6.00748 11.2882 6.08716 10.9454 6.23688C11.228 6.81292 11.3636 7.5218 11.3276 8.23497C11.2917 8.94813 11.0865 9.61834 10.7494 10.1241C10.4122 10.6298 9.96541 10.9375 9.48997 10.9915C9.01453 11.0454 8.54194 10.842 8.15791 10.4181C7.93923 11.6266 7.9787 12.9075 8.27078 14.0806C8.56285 15.2537 9.09282 16.2599 9.78608 16.9575C10.4793 17.6551 11.301 18.009 12.1354 17.9695C12.9698 17.93 13.7749 17.4989 14.4375 16.7371C15.1 15.9752 15.5866 14.9209 15.8287 13.7225C16.0708 12.5241 16.0563 11.242 15.7872 10.0566C15.5181 8.87123 15.008 7.84227 14.3286 7.11457C13.6492 6.38686 12.8348 5.99705 12 6Z" fill="#414941"/>
</svg>
