<svg width="24" height="24" viewBox="0 0 24 24" fill="none" xmlns="http://www.w3.org/2000/svg">
<path d="M21.1888 1.3473C18.022 -1.10072 14.1115 0.04169 12.0003 2.84331C9.88914 0.04169 5.97864 -1.11432 2.81186 1.3473C1.13251 2.65291 0.0769138 4.85613 0.00494147 7.18175C-0.162994 12.4586 3.96342 16.6882 10.261 23.1755L10.381 23.2979C11.2926 24.2363 12.6961 24.2363 13.6077 23.2843L13.7397 23.1483C20.0372 16.6746 24.1517 12.445 23.9957 7.16815C23.9237 4.85613 22.8681 2.65291 21.1888 1.3473ZM12.1203 21.1491L12.0003 21.2851L11.8804 21.1491C6.17057 15.2874 2.40402 11.4114 2.40402 7.48095C2.40402 4.76093 4.20333 2.72091 6.6024 2.72091C8.44969 2.72091 10.249 4.06732 10.8848 5.93054H13.1279C13.7517 4.06732 15.551 2.72091 17.3983 2.72091C19.7973 2.72091 21.5966 4.76093 21.5966 7.48095C21.5966 11.4114 17.8301 15.2874 12.1203 21.1491Z" fill="black"/>
</svg>
